<svg width="172.57" height="225.47" xmlns="http://www.w3.org/2000/svg" viewBox="0 0 20.794 27.168">
    <path fill="#ffffff" id="header-logo" data-name="header-logo"
          d="M80.6,8.071a.872.872,0,0,0-1.234,0L77.719,9.718l-.081-.081A.872.872,0,0,0,76.4,10.871l.081.081L70.034,17.4V7.076a.872.872,0,1,0-1.745,0V18.668H62.674L64.306,6.283a.159.159,0,0,1,.049-.095L69.08,1.775a.12.12,0,0,1,.163,0l4.725,4.413a.157.157,0,0,1,.049.095l.3,2.268a.872.872,0,1,0,1.73-.228l-.3-2.267a1.906,1.906,0,0,0-.588-1.142L70.434.5a1.87,1.87,0,0,0-2.545,0L63.164,4.913a1.907,1.907,0,0,0-.587,1.142l-2.5,18.963a1.9,1.9,0,0,0,1.886,2.151h14.4a1.9,1.9,0,0,0,1.886-2.151l-1.186-9a.872.872,0,1,0-1.73.228l.319,2.42H71.236l6.482-6.482.081.081a.872.872,0,0,0,1.234-1.234l-.081-.081L80.6,9.3A.872.872,0,0,0,80.6,8.071Zm-4.72,12.342.637,4.833a.157.157,0,0,1-.156.178h-14.4a.158.158,0,0,1-.156-.178l.637-4.833H75.879Z"
          transform="translate(-60.06 0)"/>
</svg>
